<?xml version="1.0" encoding="UTF-8"?>
<svg version="1.1" xmlns="http://www.w3.org/2000/svg" width="622" height="623">
<path d="M0 0 C1.11238898 -0.00262956 1.11238898 -0.00262956 2.24725047 -0.00531223 C4.72801785 -0.00995783 7.20872625 -0.00751043 9.68949604 -0.00507832 C11.48794662 -0.00694704 13.28639679 -0.00924799 15.08484632 -0.01194364 C20.02431255 -0.01806098 24.96376186 -0.0179281 29.90323102 -0.01674926 C35.23210465 -0.01654523 40.56097284 -0.02206448 45.88984394 -0.02680683 C56.33178912 -0.03511486 66.77372866 -0.03786179 77.21567687 -0.03841921 C85.70885618 -0.03889454 94.20203364 -0.04095013 102.69521236 -0.04411983 C126.79038046 -0.05292878 150.88554409 -0.05753913 174.98071381 -0.05678936 C176.27980558 -0.0567494 177.57889735 -0.05670945 178.91735554 -0.05666828 C180.86838236 -0.05660696 180.86838236 -0.05660696 182.85882387 -0.0565444 C203.91281844 -0.05613842 224.96679508 -0.06569515 246.02078446 -0.07980665 C267.65406132 -0.09419153 289.28732945 -0.10107559 310.9206112 -0.10021287 C323.0596367 -0.09988151 335.19864343 -0.10260158 347.3376646 -0.11339092 C357.67947022 -0.12252399 368.02124858 -0.1246484 378.3630565 -0.1178815 C383.6333204 -0.11462971 388.90353209 -0.11451067 394.17379093 -0.12323475 C399.01221227 -0.13116101 403.85054052 -0.12960657 408.68895976 -0.12095062 C410.42597281 -0.11942893 412.16299302 -0.12118061 413.89999761 -0.12681069 C429.44195983 -0.1737908 445.51501819 0.25620274 460.60412312 4.31613445 C461.42001911 4.5282658 462.23591511 4.74039715 463.07653522 4.95895672 C471.23030598 7.18689739 478.78609203 10.39885508 486.35412312 14.12863445 C487.8449239 14.85373211 487.8449239 14.85373211 489.36584187 15.5934782 C496.61611525 19.32721385 503.01612552 24.01815418 509.35412312 29.12863445 C510.26033405 29.8556657 511.16654499 30.58269695 512.10021687 31.33175945 C533.93800613 49.96836336 548.45606906 78.37848799 551.15394449 106.94746935 C551.60220352 114.07103712 551.49854633 121.21708208 551.49456501 128.35194683 C551.49715164 130.21017258 551.50016562 132.06839778 551.50356841 133.92662221 C551.51160645 139.01718209 551.51342619 144.10772785 551.51416588 149.19829333 C551.51602197 154.69471049 551.52357199 160.19112042 551.53030109 165.68753338 C551.54386127 177.69789491 551.54990526 189.7082531 551.55431175 201.71862102 C551.55707757 209.22155277 551.56131549 216.72448324 551.56581593 224.22741413 C551.57800457 245.01229515 551.58834068 265.79717536 551.59169102 286.58205986 C551.59191265 287.92475484 551.59213443 289.26744983 551.59235637 290.61014481 C551.59257701 291.95599194 551.59279749 293.30183906 551.59301782 294.64768618 C551.59346036 297.34747167 551.59390748 300.04725717 551.59435749 302.74704266 C551.59446688 303.41642646 551.59457627 304.08581027 551.59468898 304.77547843 C551.59831926 326.4781327 551.61424069 348.18075356 551.63754785 369.88339504 C551.66216965 392.85231215 551.6758582 415.82121554 551.67705894 438.7901476 C551.67797482 451.30177536 551.68370551 463.81335934 551.70187855 476.32497501 C551.7172978 486.97793997 551.72238912 497.63084761 551.71414044 508.28382161 C551.71024071 513.7155323 551.7111306 519.14712763 551.72519779 524.57882404 C551.73797675 529.55876527 551.73670422 534.5385049 551.72460708 539.51844601 C551.72265702 541.31248211 551.72569627 543.10653268 551.73445144 544.90054848 C551.83606276 567.14374916 547.44188846 586.75862183 532.04162312 603.66769695 C519.3431241 615.82316805 502.48842247 623.30942629 484.84222698 623.25726891 C484.0908238 623.25902194 483.33942063 623.26077498 482.56524765 623.26258114 C480.03907443 623.26724524 477.51295867 623.26477455 474.98678303 623.26234722 C473.16047227 623.26421502 471.33416192 623.2665156 469.5078522 623.26921254 C464.48212572 623.27534145 459.45641584 623.27519565 454.43068647 623.27401817 C449.01249814 623.27381442 443.59431518 623.27933064 438.17612934 623.28407574 C427.55510645 623.29239031 416.93408912 623.295131 406.31306325 623.29568812 C397.67489996 623.29616317 389.0367385 623.29821742 380.39857578 623.30138874 C355.89916305 623.31019979 331.39975469 623.31480775 306.90034036 623.31405827 C306.23988666 623.31403832 305.57943296 623.31401838 304.89896551 623.31399783 C303.56336277 623.31395739 302.22776003 623.31391559 300.89215729 623.31387244 C278.81007743 623.31322128 256.72801686 623.32252218 234.64594214 623.33707555 C212.64999947 623.35145743 190.65406538 623.35834465 168.65811789 623.35748178 C156.31285555 623.35715029 143.96761165 623.35987578 131.62235355 623.37065983 C121.10406959 623.37978896 110.58581243 623.38192054 100.06752621 623.3751504 C94.70626344 623.37189652 89.34505202 623.37178722 83.98379421 623.38050365 C79.06331049 623.38842063 74.14291837 623.38688469 69.22243674 623.37821952 C67.45442633 623.37669582 65.6864089 623.37845738 63.91840677 623.3840796 C48.85622845 623.42875476 33.24892283 623.09083443 18.66662312 618.94113445 C17.89246052 618.72827801 17.11829792 618.51542156 16.32067585 618.29611492 C-13.69304287 609.66291401 -40.31205253 589.72920601 -55.60290813 562.35299969 C-67.52519511 540.11352216 -71.12629225 517.65172901 -71.03355694 492.6335783 C-71.0377427 490.75918249 -71.04322695 488.88478922 -71.04987675 487.01040053 C-71.06418625 481.92151266 -71.06013269 476.83278873 -71.05270994 471.74389243 C-71.04794448 466.23194231 -71.06051745 460.72002596 -71.07072735 455.20808697 C-71.08785253 444.43570433 -71.08876879 433.66338019 -71.08351444 422.89098749 C-71.07946126 414.13253794 -71.08092988 405.37410559 -71.0862627 396.61565685 C-71.08701112 395.36574758 -71.08775955 394.1158383 -71.08853065 392.82805298 C-71.09006222 390.28837436 -71.09160057 387.74869574 -71.09314562 385.20901713 C-71.10296087 368.18047799 -71.10715208 351.15194505 -71.09951973 334.1234045 C-71.09922256 333.45899262 -71.09892538 332.79458073 -71.0986192 332.11003516 C-71.09617074 326.71593815 -71.09355892 321.32184122 -71.09093507 315.9277443 C-71.08082748 294.8783037 -71.08920477 273.82894285 -71.11242962 252.77951336 C-71.13853242 229.08385988 -71.15129328 205.38824379 -71.14424187 181.69257236 C-71.14075372 169.16261076 -71.14295554 156.63271465 -71.1604929 144.10276318 C-71.17523061 133.44162989 -71.17582924 122.78060826 -71.15842199 112.11947712 C-71.14992439 106.68552101 -71.14773246 101.25176423 -71.16307354 95.81781864 C-71.17696634 90.83507716 -71.17209867 85.85270496 -71.1528343 80.8699846 C-71.1490882 79.0762326 -71.15195574 77.28245069 -71.16244595 75.48872545 C-71.27821871 54.16126933 -66.4647972 35.17033341 -51.20447063 19.4919157 C-37.18310095 6.54087958 -18.96707406 0.01014462 0 0 Z " fill="#E8E8E9" transform="translate(70.64587688446045,-0.12863445281982422)"/>
<path d="M0 0 C1.11238898 -0.00262956 1.11238898 -0.00262956 2.24725047 -0.00531223 C4.72801785 -0.00995783 7.20872625 -0.00751043 9.68949604 -0.00507832 C11.48794662 -0.00694704 13.28639679 -0.00924799 15.08484632 -0.01194364 C20.02431255 -0.01806098 24.96376186 -0.0179281 29.90323102 -0.01674926 C35.23210465 -0.01654523 40.56097284 -0.02206448 45.88984394 -0.02680683 C56.33178912 -0.03511486 66.77372866 -0.03786179 77.21567687 -0.03841921 C85.70885618 -0.03889454 94.20203364 -0.04095013 102.69521236 -0.04411983 C126.79038046 -0.05292878 150.88554409 -0.05753913 174.98071381 -0.05678936 C176.27980558 -0.0567494 177.57889735 -0.05670945 178.91735554 -0.05666828 C180.86838236 -0.05660696 180.86838236 -0.05660696 182.85882387 -0.0565444 C203.91281844 -0.05613842 224.96679508 -0.06569515 246.02078446 -0.07980665 C267.65406132 -0.09419153 289.28732945 -0.10107559 310.9206112 -0.10021287 C323.0596367 -0.09988151 335.19864343 -0.10260158 347.3376646 -0.11339092 C357.67947022 -0.12252399 368.02124858 -0.1246484 378.3630565 -0.1178815 C383.6333204 -0.11462971 388.90353209 -0.11451067 394.17379093 -0.12323475 C399.01221227 -0.13116101 403.85054052 -0.12960657 408.68895976 -0.12095062 C410.42597281 -0.11942893 412.16299302 -0.12118061 413.89999761 -0.12681069 C429.44195983 -0.1737908 445.51501819 0.25620274 460.60412312 4.31613445 C461.42001911 4.5282658 462.23591511 4.74039715 463.07653522 4.95895672 C471.23030598 7.18689739 478.78609203 10.39885508 486.35412312 14.12863445 C487.8449239 14.85373211 487.8449239 14.85373211 489.36584187 15.5934782 C496.61611525 19.32721385 503.01612552 24.01815418 509.35412312 29.12863445 C510.26033405 29.8556657 511.16654499 30.58269695 512.10021687 31.33175945 C533.93800613 49.96836336 548.45606906 78.37848799 551.15394449 106.94746935 C551.60220352 114.07103712 551.49854633 121.21708208 551.49456501 128.35194683 C551.49715164 130.21017258 551.50016562 132.06839778 551.50356841 133.92662221 C551.51160645 139.01718209 551.51342619 144.10772785 551.51416588 149.19829333 C551.51602197 154.69471049 551.52357199 160.19112042 551.53030109 165.68753338 C551.54386127 177.69789491 551.54990526 189.7082531 551.55431175 201.71862102 C551.55707757 209.22155277 551.56131549 216.72448324 551.56581593 224.22741413 C551.57800457 245.01229515 551.58834068 265.79717536 551.59169102 286.58205986 C551.59191265 287.92475484 551.59213443 289.26744983 551.59235637 290.61014481 C551.59257701 291.95599194 551.59279749 293.30183906 551.59301782 294.64768618 C551.59346036 297.34747167 551.59390748 300.04725717 551.59435749 302.74704266 C551.59446688 303.41642646 551.59457627 304.08581027 551.59468898 304.77547843 C551.59831926 326.4781327 551.61424069 348.18075356 551.63754785 369.88339504 C551.66216965 392.85231215 551.6758582 415.82121554 551.67705894 438.7901476 C551.67797482 451.30177536 551.68370551 463.81335934 551.70187855 476.32497501 C551.7172978 486.97793997 551.72238912 497.63084761 551.71414044 508.28382161 C551.71024071 513.7155323 551.7111306 519.14712763 551.72519779 524.57882404 C551.73797675 529.55876527 551.73670422 534.5385049 551.72460708 539.51844601 C551.72265702 541.31248211 551.72569627 543.10653268 551.73445144 544.90054848 C551.83606276 567.14374916 547.44188846 586.75862183 532.04162312 603.66769695 C519.3431241 615.82316805 502.48842247 623.30942629 484.84222698 623.25726891 C484.0908238 623.25902194 483.33942063 623.26077498 482.56524765 623.26258114 C480.03907443 623.26724524 477.51295867 623.26477455 474.98678303 623.26234722 C473.16047227 623.26421502 471.33416192 623.2665156 469.5078522 623.26921254 C464.48212572 623.27534145 459.45641584 623.27519565 454.43068647 623.27401817 C449.01249814 623.27381442 443.59431518 623.27933064 438.17612934 623.28407574 C427.55510645 623.29239031 416.93408912 623.295131 406.31306325 623.29568812 C397.67489996 623.29616317 389.0367385 623.29821742 380.39857578 623.30138874 C355.89916305 623.31019979 331.39975469 623.31480775 306.90034036 623.31405827 C306.23988666 623.31403832 305.57943296 623.31401838 304.89896551 623.31399783 C303.56336277 623.31395739 302.22776003 623.31391559 300.89215729 623.31387244 C278.81007743 623.31322128 256.72801686 623.32252218 234.64594214 623.33707555 C212.64999947 623.35145743 190.65406538 623.35834465 168.65811789 623.35748178 C156.31285555 623.35715029 143.96761165 623.35987578 131.62235355 623.37065983 C121.10406959 623.37978896 110.58581243 623.38192054 100.06752621 623.3751504 C94.70626344 623.37189652 89.34505202 623.37178722 83.98379421 623.38050365 C79.06331049 623.38842063 74.14291837 623.38688469 69.22243674 623.37821952 C67.45442633 623.37669582 65.6864089 623.37845738 63.91840677 623.3840796 C48.85622845 623.42875476 33.24892283 623.09083443 18.66662312 618.94113445 C17.89246052 618.72827801 17.11829792 618.51542156 16.32067585 618.29611492 C-13.69304287 609.66291401 -40.31205253 589.72920601 -55.60290813 562.35299969 C-67.52519511 540.11352216 -71.12629225 517.65172901 -71.03355694 492.6335783 C-71.0377427 490.75918249 -71.04322695 488.88478922 -71.04987675 487.01040053 C-71.06418625 481.92151266 -71.06013269 476.83278873 -71.05270994 471.74389243 C-71.04794448 466.23194231 -71.06051745 460.72002596 -71.07072735 455.20808697 C-71.08785253 444.43570433 -71.08876879 433.66338019 -71.08351444 422.89098749 C-71.07946126 414.13253794 -71.08092988 405.37410559 -71.0862627 396.61565685 C-71.08701112 395.36574758 -71.08775955 394.1158383 -71.08853065 392.82805298 C-71.09006222 390.28837436 -71.09160057 387.74869574 -71.09314562 385.20901713 C-71.10296087 368.18047799 -71.10715208 351.15194505 -71.09951973 334.1234045 C-71.09922256 333.45899262 -71.09892538 332.79458073 -71.0986192 332.11003516 C-71.09617074 326.71593815 -71.09355892 321.32184122 -71.09093507 315.9277443 C-71.08082748 294.8783037 -71.08920477 273.82894285 -71.11242962 252.77951336 C-71.13853242 229.08385988 -71.15129328 205.38824379 -71.14424187 181.69257236 C-71.14075372 169.16261076 -71.14295554 156.63271465 -71.1604929 144.10276318 C-71.17523061 133.44162989 -71.17582924 122.78060826 -71.15842199 112.11947712 C-71.14992439 106.68552101 -71.14773246 101.25176423 -71.16307354 95.81781864 C-71.17696634 90.83507716 -71.17209867 85.85270496 -71.1528343 80.8699846 C-71.1490882 79.0762326 -71.15195574 77.28245069 -71.16244595 75.48872545 C-71.27821871 54.16126933 -66.4647972 35.17033341 -51.20447063 19.4919157 C-37.18310095 6.54087958 -18.96707406 0.01014462 0 0 Z M-3.64587688 73.12863445 C-6.6523896 78.10587958 -8.75764305 82.82133542 -8.80409527 88.69493389 C-8.81388535 89.64038161 -8.82367542 90.58582933 -8.83376217 91.55992699 C-8.83951637 92.60361852 -8.84527058 93.64731005 -8.85119915 94.72262859 C-8.86108742 95.83366105 -8.87097569 96.94469351 -8.8811636 98.08939362 C-8.91322217 101.86417038 -8.93787389 105.63895719 -8.96228313 109.4137907 C-8.97751156 111.45307092 -8.99342857 113.49234502 -9.00939959 115.53161955 C-9.08031423 124.61723241 -9.13809308 133.70291174 -9.19357014 142.78863001 C-9.20831932 145.18179418 -9.22349241 147.57495527 -9.23881817 149.96811581 C-9.63271443 211.53031209 -9.81143181 273.09352405 -9.88107389 334.65688044 C-9.89113725 342.94550885 -9.90880977 351.23410014 -9.92959881 359.52270794 C-9.95498805 369.73162135 -9.96923478 379.94048038 -9.96971554 390.14942646 C-9.97020113 395.41532267 -9.97538581 400.68109942 -9.99347782 405.94696712 C-10.01000583 410.81973108 -10.01213619 415.69229538 -10.0034579 420.56507766 C-10.00271878 422.32544883 -10.00695816 424.08583146 -10.01696122 425.84617436 C-10.21529484 462.92858888 3.623183 497.32771524 29.60412312 523.81613445 C36.30147066 530.46032175 43.38403962 536.09501594 51.35412312 541.12863445 C51.92485554 541.49037762 52.49558796 541.85212078 53.0836153 542.22482586 C74.70402166 555.70556992 98.46065187 561.28098271 123.71931171 561.27580547 C125.18268165 561.27910894 126.64605068 561.28283552 128.10941857 561.28694695 C132.11766713 561.29691937 136.12590072 561.300676 140.13415992 561.30333626 C144.46215658 561.30725325 148.79014154 561.31683025 153.11813068 561.32554913 C163.56061473 561.34526932 174.00309968 561.35537192 184.44559768 561.36427692 C189.36687567 561.36866517 194.28815259 561.37403041 199.20942974 561.37926579 C215.57295 561.39626998 231.9364696 561.41076511 248.29999733 561.41801453 C252.54191622 561.4199243 256.78383511 561.42184466 261.02575397 561.42380047 C262.08001279 561.42428421 263.13427161 561.42476795 264.22047766 561.42526635 C281.30683402 561.43357052 298.39312046 561.4589176 315.47944627 561.49138115 C333.03223668 561.5244586 350.58499153 561.54246372 368.13781327 561.54565877 C377.98894035 561.5478227 387.83996531 561.55655494 397.69106197 561.58211994 C406.0780718 561.60383588 414.46495467 561.61187276 422.85198943 561.60215316 C427.1288448 561.59761171 431.40543828 561.59948578 435.68225765 561.6189146 C439.60247579 561.6365694 443.52224139 561.6355301 447.44246449 561.62001731 C448.85560702 561.6176448 450.26878109 561.62194624 451.6818755 561.63384596 C463.71540732 561.72885117 473.51185208 559.91995248 482.40881062 551.4216032 C487.58622495 545.318908 490.47619692 538.26077353 490.48555088 530.29963207 C490.48939203 529.07573757 490.49323317 527.85184306 490.49719071 526.59086084 C490.49641041 525.22540023 490.49553162 523.85993967 490.49456501 522.49447918 C490.49714801 521.04937584 490.50016099 519.60427321 490.50356841 518.15917158 C490.51165053 514.17787216 490.51342867 510.19659076 490.51416588 506.21528411 C490.51601454 501.92453988 490.52356134 497.63380503 490.53030109 493.34306622 C490.54389764 483.95177305 490.54991234 474.56048415 490.55431175 465.16918278 C490.55707422 459.30064968 490.56131181 453.43211822 490.56581593 447.56358624 C490.57801463 431.30579768 490.58830995 415.04801044 490.59169102 398.7902174 C490.59191058 397.74903567 490.59213015 396.70785394 490.59235637 395.63512126 C490.59257465 394.59146264 490.59279292 393.54780403 490.59301782 392.4725194 C490.59346128 390.35772832 490.59390784 388.24293725 490.59435749 386.12814617 C490.59457892 385.07913956 490.59480035 384.03013295 490.59502849 382.94933826 C490.59896914 365.98447958 490.61639803 349.01966406 490.63971701 332.05482203 C490.66348188 314.62419232 490.67589535 297.19358419 490.67705894 279.76293802 C490.67797328 269.98192498 490.68366384 260.20096803 490.70187855 250.41997051 C490.71734955 242.08285467 490.72235932 233.74581221 490.71414044 225.40868473 C490.71025739 221.16129588 490.71104716 216.91405447 490.72519779 212.66668415 C490.86733394 167.34877978 481.4172591 129.82364686 448.93615437 96.57394695 C422.95278835 70.95308994 388.3314847 60.98549339 352.65940571 60.97473431 C351.19685853 60.97071056 349.73431246 60.96627085 348.27176768 60.96145475 C344.27977028 60.94958716 340.28778491 60.94386398 336.29577339 60.9392736 C331.98011713 60.93328072 327.66447498 60.92168114 323.34882832 60.91098309 C312.94616753 60.88655575 302.54350212 60.87185282 292.14082155 60.85892302 C289.20122384 60.85520613 286.2616266 60.85123338 283.32202935 60.84717035 C265.04842236 60.82194548 246.77481454 60.79990351 228.501194 60.78744221 C224.27695876 60.78451281 220.05272354 60.78155109 215.82848835 60.7785368 C214.77865434 60.77779075 213.72882033 60.7770447 212.64717317 60.77627604 C195.62174653 60.76360871 178.59642398 60.73035955 161.57104605 60.68873496 C144.07579684 60.64631296 126.580601 60.62274751 109.08530051 60.61752164 C99.26831652 60.61410952 89.45149576 60.60237618 79.63456249 60.56941891 C71.27978571 60.5414147 62.9252057 60.53042115 54.57038563 60.54161437 C50.30977738 60.54679854 46.04958124 60.54392961 41.78903294 60.51914883 C37.88494137 60.49663078 33.98155738 60.49741536 30.0774532 60.5163527 C28.66912452 60.51914901 27.26074758 60.51357458 25.85249638 60.49853976 C13.62859944 60.37606569 4.05040252 63.16031512 -3.64587688 73.12863445 Z " fill="#004296" transform="translate(70.64587688446045,-0.12863445281982422)"/>
<path d="M0 0 C14.85 0 29.7 0 45 0 C47.64 2.64 50.28 5.28 53 8 C54.8823335 9.6590058 56.76558476 11.31714981 58.66796875 12.953125 C61.66270063 15.58166688 64.57975602 18.28926718 67.5 21 C70.96270951 24.21176007 74.4264917 27.4110352 78 30.5 C82.11360146 34.05817847 86.09095275 37.7584212 90.07983398 41.45483398 C94.17712069 45.24901264 98.31419343 48.99554128 102.47265625 52.72265625 C105.849234 55.7652294 109.19480481 58.84118744 112.54150391 61.91650391 C115.65651092 64.77616612 118.78860242 67.61523037 121.9375 70.4375 C125.86826966 73.96316619 129.75214382 77.53610521 133.625 81.125 C137.64378692 84.84810954 141.69889776 88.51091163 145.84375 92.09375 C149.3603865 95.20266053 152.78596714 98.41002493 156.22705078 101.60205078 C159.0736601 104.23773912 161.93363904 106.84465891 164.875 109.375 C171.38705165 115.09771206 177.66228417 121.08479856 184 127 C184.495 64.135 184.495 64.135 185 0 C200.51 0 216.02 0 232 0 C232 63.03 232 126.06 232 191 C185 191 185 191 172 179 C167.51424288 174.8880487 167.51424288 174.8880487 163.02734375 170.77734375 C158.21970203 166.37020846 153.43135354 161.94214163 148.64111328 157.51611328 C145.92822414 155.00985896 143.21405141 152.50499554 140.5 150 C139.41666043 149.00000676 138.33332709 148.00000676 137.25 147 C136.445625 146.2575 136.445625 146.2575 135.625 145.5 C129.66666667 140 123.70833333 134.5 117.75 129 C117.21391113 128.50516113 116.67782227 128.01032227 116.12548828 127.50048828 C115.04047744 126.49891474 113.95551662 125.497287 112.87060547 124.49560547 C110.18834243 122.01923728 107.50526066 119.54376936 104.8203125 117.0703125 C95.87089336 108.8230237 86.97459535 100.51957587 78.08398438 92.20898438 C76.18128659 90.43067133 74.27826423 88.65270678 72.375 86.875 C71.45243408 86.01322144 71.45243408 86.01322144 70.51123047 85.1340332 C65.73349972 80.67519672 60.93581904 76.23833021 56.12255859 71.81787109 C53.69806005 69.58739502 51.33039816 67.33039816 49 65 C48.67 105.92 48.34 146.84 48 189 C32.16 189 16.32 189 0 189 C0 126.63 0 64.26 0 0 Z " fill="#007898" transform="translate(191,331)"/>
<path d="M0 0 C1.65391882 1.36069417 3.22499868 2.82116193 4.7734375 4.30078125 C4.7734375 6.30078125 4.7734375 6.30078125 2.734375 8.46875 C1.74960155 9.41506115 0.76236596 10.35881308 -0.2265625 11.30078125 C-1.40341999 12.46113445 -2.57774919 13.62405558 -3.75 14.7890625 C-4.37543701 15.40966553 -5.00087402 16.03026855 -5.64526367 16.66967773 C-6.29084229 17.31106689 -6.9364209 17.95245605 -7.6015625 18.61328125 C-8.26841064 19.27465088 -8.93525879 19.93602051 -9.62231445 20.61743164 C-13.60285593 24.5921158 -17.39304519 28.61596953 -20.83203125 33.078125 C-22.2265625 34.30078125 -22.2265625 34.30078125 -26.2265625 34.30078125 C-27.9453125 32.98046875 -27.9453125 32.98046875 -29.7265625 31.17578125 C-41.0824193 20.80647763 -55.69270235 17.67127617 -70.703125 18.01171875 C-77.93562357 18.60507229 -84.6911457 20.42434264 -90.2265625 25.30078125 C-93.5735764 30.09119489 -94.99055108 34.40715503 -94.2265625 40.30078125 C-91.34124948 48.04556883 -85.18804415 51.18273478 -78.08886719 54.64111328 C-68.86292803 58.7644501 -59.01651865 61.56458785 -49.42236328 64.69360352 C-10.28575777 77.50606546 -10.28575777 77.50606546 0.7734375 95.30078125 C7.20658123 108.26513492 7.91316132 124.70839657 3.8125 138.5625 C-1.98164244 153.83202574 -11.90138986 163.38330409 -26.4140625 170.48828125 C-52.90990827 182.20157477 -85.99228358 181.69380007 -113.02807617 171.84301758 C-126.71566297 166.54009933 -138.74814525 159.67488195 -148.2265625 148.30078125 C-138.9865625 139.06078125 -129.7465625 129.82078125 -120.2265625 120.30078125 C-116.85127136 121.98842682 -115.39453388 122.97407651 -112.8515625 125.48828125 C-98.6509159 138.08774588 -79.77559321 141.52521724 -61.390625 140.48095703 C-53.56741734 139.82961145 -47.41487576 137.32924751 -42.2265625 131.30078125 C-39.45732816 126.8274027 -39.74868868 122.40350172 -40.2265625 117.30078125 C-41.45672305 112.73161349 -43.58910457 110.77753903 -47.4140625 108.23828125 C-55.19249978 103.93791664 -63.77404702 101.81759408 -72.28417969 99.45019531 C-110.95352991 88.66750544 -110.95352991 88.66750544 -124.2265625 76.30078125 C-124.83242187 75.80707031 -125.43828125 75.31335938 -126.0625 74.8046875 C-133.7149751 68.10459467 -139.35097548 56.42785374 -140.2265625 46.30078125 C-141.14802186 29.32545206 -138.12313325 13.98835691 -127.4765625 0.36328125 C-93.55090712 -34.47190913 -35.98141728 -27.45950266 0 0 Z " fill="#014195" transform="translate(301.2265625,125.69921875)"/>
<path d="M0 0 C14.85 0 29.7 0 45 0 C45.09063817 17.94287105 45.16417722 35.8855437 45.20724869 53.82858086 C45.22778782 62.16168344 45.25574075 70.49463265 45.30175781 78.82763672 C45.34189286 86.09902343 45.36749548 93.37029895 45.37635398 100.64179337 C45.38152412 104.48447907 45.39348997 108.32684696 45.42292023 112.16942978 C45.71024496 151.20360333 45.71024496 151.20360333 37.1875 166.625 C36.84275635 167.27976318 36.4980127 167.93452637 36.14282227 168.60913086 C33.37533027 173.69672162 30.15250114 177.9522638 26 182 C25.45859375 182.59941406 24.9171875 183.19882812 24.359375 183.81640625 C14.81973493 194.13615707 1.64432874 199.70634259 -12.25390625 200.44921875 C-35.98398903 201.11101389 -54.02528059 194.72471937 -72 179 C-73.98 176.525 -73.98 176.525 -76 174 C-67.09 165.09 -58.18 156.18 -49 147 C-45.91386496 148.54306752 -43.95404003 149.75689479 -41.375 151.875 C-34.58262468 157.02609503 -27.55036013 159.95004001 -19 159 C-14.09146131 158.00011249 -10.82260409 156.768956 -7.125 153.3125 C-0.62999804 143.18793811 -0.84967458 132.48932082 -0.79467773 120.79101562 C-0.78477814 119.48286896 -0.77487854 118.17472229 -0.76467896 116.82693481 C-0.73780227 113.26142564 -0.71670018 109.69590347 -0.69667697 106.13035011 C-0.67471021 102.39608049 -0.64737415 98.66185015 -0.62062073 94.9276123 C-0.57083763 87.86595641 -0.52584585 80.80427855 -0.48259836 73.74257994 C-0.43310254 65.69899068 -0.37823046 57.65544087 -0.32291877 49.61188984 C-0.2093197 33.07462837 -0.10314274 16.53733049 0 0 Z " fill="#004195" transform="translate(390,106)"/>
<path d="M0 0 C15.51 0 31.02 0 47 0 C47 0.66 47 1.32 47 2 C32.15 2 17.3 2 2 2 C2 43.58 2 85.16 2 128 C1.01 128 0.02 128 -1 128 C-0.67 85.76 -0.34 43.52 0 0 Z " fill="#076E8F" transform="translate(376,331)"/>
<path d="M0 0 C2 2 2 2 2.23047829 4.12018013 C2.21665139 5.44479665 2.21665139 5.44479665 2.20254517 6.7961731 C2.19688034 7.80862091 2.19121552 8.82106873 2.18537903 9.86419678 C2.16883774 10.97909485 2.15229645 12.09399292 2.13525391 13.24267578 C2.12579239 14.4133963 2.11633087 15.58411682 2.10658264 16.79031372 C2.07862649 20.00509983 2.04170758 23.21963544 2.00085878 26.43427896 C1.96029097 29.79212703 1.93110403 33.15007319 1.90072632 36.50802612 C1.84144597 42.86876802 1.77188332 49.22935454 1.69865549 55.58994949 C1.6157965 62.83041093 1.54435587 70.07097081 1.47388959 77.31156182 C1.3286605 92.20785287 1.16904252 107.10395874 1 122 C0.01 122.495 0.01 122.495 -1 123 C-1.02332924 107.11044873 -1.0409793 91.22090206 -1.05181217 75.33133793 C-1.05697508 67.95404044 -1.06401767 60.57675357 -1.07543945 53.19946289 C-1.08538646 46.7716782 -1.09185347 40.3439012 -1.09408849 33.91610903 C-1.09539557 30.51060722 -1.09848125 27.10512742 -1.10573006 23.69963264 C-1.11293606 19.90398959 -1.11399113 16.10839288 -1.11352539 12.31274414 C-1.11712067 11.17554932 -1.12071594 10.03835449 -1.12442017 8.86669922 C-1.1230455 7.83879776 -1.12167084 6.8108963 -1.12025452 5.75184631 C-1.12117631 4.85309815 -1.1220981 3.95434999 -1.12304783 3.02836704 C-1 1 -1 1 0 0 Z " fill="#F7F7F6" transform="translate(240,398)"/>
<path d="M0 0 C4.0084034 2.0042017 5.41409657 3.49055963 8 7 C4 5 4 5 0 3 C-3.26687486 6.19265366 -6.52372224 9.39508592 -9.77172852 12.60693359 C-10.87775836 13.69788784 -11.98646726 14.786133 -13.09790039 15.87158203 C-14.69611251 17.43335749 -16.28439904 19.0046602 -17.87109375 20.578125 C-18.36902939 21.06057678 -18.86696503 21.54302856 -19.37998962 22.0401001 C-22.14563198 24.80438131 -23.01823151 26.07292604 -24 30 C-21.03 32.64 -18.06 35.28 -15 38 C-18.71884228 38 -19.36147729 37.1259934 -22.0625 34.6875 C-22.75472656 34.07261719 -23.44695312 33.45773437 -24.16015625 32.82421875 C-26 31 -26 31 -28 28 C-18.76 18.76 -9.52 9.52 0 0 Z " fill="#122D7F" transform="translate(181,246)"/>
<path d="M0 0 C0.66 0.33 1.32 0.66 2 1 C1.50628906 1.45890625 1.01257813 1.9178125 0.50390625 2.390625 C-0.13675781 3.00421875 -0.77742187 3.6178125 -1.4375 4.25 C-2.07558594 4.85328125 -2.71367187 5.4565625 -3.37109375 6.078125 C-5.34247387 8.11687433 -5.34247387 8.11687433 -6 12 C-3.03 14.64 -0.06 17.28 3 20 C-0.71884228 20 -1.36147729 19.1259934 -4.0625 16.6875 C-4.75472656 16.07261719 -5.44695312 15.45773437 -6.16015625 14.82421875 C-8 13 -8 13 -10 10 C-6.7 6.7 -3.4 3.4 0 0 Z " fill="#05257A" transform="translate(163,264)"/>
<path d="M0 0 C1.22589844 0.01353516 1.22589844 0.01353516 2.4765625 0.02734375 C3.41628906 0.04474609 3.41628906 0.04474609 4.375 0.0625 C4.705 0.7225 5.035 1.3825 5.375 2.0625 C3.14609005 3.17695498 1.84444894 3.22730286 -0.625 3.25 C-1.676875 3.27126953 -1.676875 3.27126953 -2.75 3.29296875 C-4.625 3.0625 -4.625 3.0625 -6.625 1.0625 C-4.21954362 -0.14022819 -2.67503047 -0.03821472 0 0 Z " fill="#DDE4EA" transform="translate(367.625,262.9375)"/>
<path d="M0 0 C4.2742558 1.5830577 6.26531794 4.50568404 9 8 C8.01 8.33 7.02 8.66 6 9 C4.99406757 7.8803014 3.9954151 6.7540588 3 5.625 C2.443125 4.99851562 1.88625 4.37203125 1.3125 3.7265625 C0 2 0 2 0 0 Z " fill="#1F4692" transform="translate(582,32)"/>
<path d="M0 0 C5.75 -0.125 5.75 -0.125 8 1 C8 1.99 8 2.98 8 4 C5.64828869 3.40138258 3.3140622 2.73075648 1 2 C0.67 1.34 0.34 0.68 0 0 Z " fill="#0C3689" transform="translate(202,215)"/>
<path d="M0 0 C1.46015291 0.28241641 2.91809793 0.57626614 4.375 0.875 C5.18710938 1.03742188 5.99921875 1.19984375 6.8359375 1.3671875 C9 2 9 2 11 4 C4.25 4.125 4.25 4.125 2 3 C2 2.34 2 1.68 2 1 C1.34 0.67 0.68 0.34 0 0 Z " fill="#05297F" transform="translate(245,189)"/>
</svg>
